<svg xmlns="http://www.w3.org/2000/svg" width="108" height="41" fill="none" viewBox="0 0 108 41"><path fill="#030a06" d="M17.55 0c-.213 0-.438 0-.65.026-2.453.204-4.707 1.246-6.313 3.145-1.747 2.066-2.17 4.243-2.15 6.874l-4.674-.007q-.314-.002-.645-.012c-.61-.017-1.243-.035-1.815.07-.344.063-.645.23-.887.483-.424.441-.435 1-.407 1.57.044.902.12 1.804.198 2.705q.065.735.12 1.47l.777 10.025.377 4.841q.027.359.049.723c.053.866.107 1.745.336 2.574a7.77 7.77 0 0 0 5.587 5.448c1.048.253 2.265.224 3.408.197.34-.008.675-.015.995-.015l6.293-.002 5.496.002q.452.002.922.015c1.015.024 2.073.049 3.022-.172 1.335-.31 2.685-1.043 3.66-2.01.906-.899 1.63-2.1 1.947-3.34.242-.95.303-1.99.362-3q.026-.49.062-.963l.516-6.64.643-8.152q.048-.605.112-1.217c.087-.884.175-1.774.173-2.648 0-.537-.114-1.039-.5-1.438-.264-.275-.697-.409-1.064-.469-.55-.09-1.152-.073-1.735-.058a25 25 0 0 1-.634.012q-2.205-.005-4.411.015l-.063.001c.034-2.817-.593-5.234-2.618-7.295A9.03 9.03 0 0 0 17.58 0zm8.91 16.069.079.004.006.015.012.03.004.007c.014.033.017.039.016.092-.025 3.454-.95 7.901-3.402 10.431-2.27 2.343-5.795 3.492-9.01 3.556 1.497-2.816 3.904-5.487 6.386-7.471.384-.307.785-.584 1.188-.861.258-.179.517-.357.772-.544.247-.181.58-.427.614-.757.032-.305-.13-.541-.32-.758-.267-.155-.462-.22-.767-.13-.433.127-.869.447-1.262.736l-.303.219a26.4 26.4 0 0 0-7.745 8.58c-.065-2.764.565-5.078 2.259-7.3 2.543-3.336 7.41-5.296 11.473-5.85m-24.707-4.3 31.577-.001a85 85 0 0 0-.257 3.208q-.059.896-.128 1.788l-.85 10.655-.318 3.926q-.022.255-.04.514c-.051.677-.103 1.36-.234 2.024-.134.68-.394 1.272-.747 1.865a7 7 0 0 1-.443.596c-.915 1.094-2.418 1.909-3.845 2.017-.777.058-1.577.044-2.37.029q-.514-.011-1.021-.013l-6.552-.002-5.213.002q-.377.002-.765.011c-.79.017-1.6.033-2.36-.097a5.63 5.63 0 0 1-2.696-1.272 5.9 5.9 0 0 1-1.892-2.977c-.213-.77-.266-1.591-.318-2.397q-.019-.304-.042-.604l-.31-3.995zm25.408 2.448-.024.003c-4.793.554-10.25 2.526-13.348 6.409-1.992 2.495-3.08 5.741-2.72 8.937.079.702.238 1.373.467 2.04l-.094.237c-.393.988-1.307 3.287-.99 3.966.092.197.28.328.483.393q.125.037.255.052c.269-.045.517-.1.679-.34.173-.259.35-.88.503-1.41.072-.253.139-.486.197-.649.196-.56.42-1.11.643-1.66l.003-.006.078-.192c3.953.011 8.175-1.226 11.034-4.047 3.198-3.156 4.003-8.245 4.01-12.552 0-.34-.023-.742-.271-1.002-.153-.16-.383-.208-.596-.203-.104.002-.206.013-.31.024m-9.995-12.49q.23-.017.46-.017c1.878.013 3.758.853 5.077 2.176 1.796 1.802 2.164 3.714 2.168 6.16l-6.88-.005-7.74.01c-.059-2.102.28-4.022 1.659-5.682 1.324-1.594 3.215-2.46 5.256-2.642"/><path fill="#030a06" d="m26.539 16.073-.08-.005c-4.062.554-8.93 2.514-11.472 5.85-1.694 2.222-2.324 4.536-2.259 7.3a26.4 26.4 0 0 1 7.745-8.58q.146-.103.303-.22c.393-.288.83-.608 1.262-.735.305-.09.5-.025.767.13.19.217.352.453.32.758-.035.33-.367.576-.614.757-.255.187-.514.365-.772.544-.402.277-.804.554-1.188.86-2.482 1.985-4.889 4.656-6.386 7.472 3.215-.064 6.74-1.213 9.01-3.556 2.452-2.53 3.377-6.977 3.402-10.431 0-.053-.002-.06-.017-.092l-.012-.03zm.598-1.853.024-.003c.103-.01.205-.022.308-.024.214-.005.444.043.596.203.249.26.272.663.272 1.002-.006 4.307-.812 9.396-4.01 12.552-2.86 2.82-7.081 4.058-11.034 4.046l-.078.193-.003.007c-.223.55-.447 1.1-.643 1.659-.058.163-.125.396-.197.649-.152.53-.33 1.151-.503 1.41-.162.24-.41.295-.679.34a1.4 1.4 0 0 1-.255-.052.78.78 0 0 1-.482-.393c-.318-.68.596-2.978.99-3.966l.093-.236a9.5 9.5 0 0 1-.467-2.04c-.36-3.197.728-6.443 2.72-8.938 3.098-3.883 8.555-5.855 13.349-6.41"/><path fill="#030a06" d="m27.161 14.217-.024.003c-4.793.554-10.25 2.526-13.348 6.409-1.991 2.495-3.08 5.741-2.72 8.937.079.702.238 1.373.467 2.04l-.094.237c-.393.988-1.307 3.287-.99 3.966a.78.78 0 0 0 .483.393q.125.037.255.052c.269-.045.517-.1.679-.34.173-.259.35-.879.503-1.41.072-.253.139-.486.197-.65.197-.559.42-1.109.643-1.658l.003-.007.079-.193c3.952.012 8.174-1.225 11.033-4.046 3.198-3.156 4.003-8.245 4.01-12.552 0-.34-.023-.742-.271-1.002-.153-.16-.383-.208-.596-.203-.103.002-.206.013-.309.024m-.701 1.851.08.005.02.052c.015.033.018.039.017.092-.025 3.454-.95 7.901-3.402 10.431-2.27 2.343-5.795 3.492-9.01 3.556 1.497-2.816 3.904-5.488 6.386-7.471.384-.307.786-.584 1.188-.861.259-.179.518-.357.772-.544.247-.181.58-.427.614-.758.032-.304-.13-.54-.32-.758-.267-.154-.462-.219-.767-.13-.433.128-.869.448-1.262.737l-.303.219a26.4 26.4 0 0 0-7.745 8.58c-.065-2.764.565-5.078 2.26-7.3 2.542-3.336 7.41-5.296 11.472-5.85m62.42 9.855a6.151 6.151 0 1 0-12.295.434 6.151 6.151 0 0 0 12.296-.434m-6.15-4.085c.991.04 1.794.278 2.549.947.9.796 1.401 1.947 1.467 3.138.066 1.193-.31 2.402-1.121 3.29-.742.812-1.668 1.175-2.752 1.23-.99-.01-1.805-.165-2.586-.814-.912-.758-1.427-1.88-1.524-3.052-.1-1.219.219-2.478 1.027-3.412.803-.927 1.75-1.246 2.94-1.327m-10.947 3.576a6.148 6.148 0 1 0-12.21 1.463 6.148 6.148 0 0 0 12.21-1.463m-6.651-3.526c.985-.08 1.877.023 2.709.595.934.643 1.52 1.635 1.715 2.743.22 1.258.013 2.604-.744 3.652-.662.918-1.49 1.374-2.594 1.55-1.007.051-1.898-.01-2.746-.61a4.16 4.16 0 0 1-1.711-2.737c-.206-1.22.04-2.623.768-3.637.64-.891 1.533-1.385 2.603-1.556m36.644-1.903q-.045 0-.091.007c-1.548.182-2.943.932-3.916 2.161-1.111 1.403-1.492 3.182-1.273 4.942a5.83 5.83 0 0 0 2.195 3.913c1.452 1.128 3.292 1.414 5.085 1.17 1.038-.143 2.597-.64 3.26-1.503a1.12 1.12 0 0 0 .238-.845.82.82 0 0 0-.302-.552c-.203-.151-.474-.17-.716-.123-.335.066-.636.273-.921.47l-.179.121c-1.252.651-2.641.957-4.019.51a3.84 3.84 0 0 1-2.245-1.952c-.238-.473-.356-.976-.461-1.492h5.91c.246 0 .51.009.781.018.701.022 1.451.046 2.07-.065a.93.93 0 0 0 .472-.25c.291-.283.342-.684.334-1.07-.033-1.481-.729-2.942-1.806-3.944-1.243-1.157-2.744-1.592-4.416-1.516m.182 1.85a3.67 3.67 0 0 1 2.541.643c.883.629 1.348 1.52 1.534 2.57a152 152 0 0 1-2.25.005l-1.124-.002-4.156.005c.19-.639.41-1.22.82-1.756.659-.863 1.571-1.325 2.635-1.465"/><path fill="#030a06" d="M68.86 15.59c2.218-.053 4.448-.004 6.668-.008 1.265-.002 2.88-.105 4.107.021a.85.85 0 0 1 .505.208c.214.187.356.468.364.754.006.257-.152.553-.338.726-.142.131-.311.184-.498.214-.511.082-1.075.034-1.594.034l-2.754-.005-.001 10.221c.004.862.113 2.74-.017 3.473-.04.23-.124.46-.282.636a.9.9 0 0 1-.658.29c-.265.006-.523-.052-.714-.245-.225-.225-.307-.556-.335-.864-.05-.567-.004-1.167.002-1.737.01-.844.003-1.688.002-2.531l.007-9.245c-.916.005-4.087.15-4.736-.144a.84.84 0 0 1-.472-.52.96.96 0 0 1 .082-.783c.156-.282.363-.403.662-.496m-14.51 4.404c.823-.047 1.629.006 2.429.22.845.226 2.137.725 2.573 1.526.12.221.183.485.098.73-.086.248-.323.439-.56.536-.696.285-1.566-.672-2.22-.919-1.062-.4-2.34-.378-3.375.105-.95.443-1.633 1.283-1.987 2.26-.41 1.132-.445 2.608.076 3.712.483 1.023 1.373 1.738 2.427 2.11 1.207.427 2.465.2 3.593-.34.35-.19.667-.442 1.065-.524a.74.74 0 0 1 .584.1c.216.15.391.447.42.708.027.245-.069.47-.22.66-.66.817-2.13 1.228-3.13 1.35-1.734.213-3.541-.134-4.93-1.241a6.06 6.06 0 0 1-2.297-4.179 6.28 6.28 0 0 1 1.34-4.576 6.04 6.04 0 0 1 4.114-2.238m37.053-3.104.103-.004c.308-.01.617.072.834.299.519.542.313 2.367.307 3.115.706.004 2.424-.215 2.953.255.192.171.27.408.27.66.001.244-.062.479-.244.651-.494.469-2.28.284-2.98.28.006 1.501-.197 6.129.266 7.268.748 1.842 2.369.222 3.294.657a.9.9 0 0 1 .433.495c.104.292.011.553-.108.821l-.062.067c-.559.582-1.608.722-2.38.733-.894.013-1.74-.139-2.4-.8-.477-.479-.774-1.135-.919-1.788-.225-1.01-.132-2.126-.131-3.155l.002-4.296q-.814 0-1.627-.013a2 2 0 0 1-.256-.185c-.214-.193-.311-.48-.32-.765a.82.82 0 0 1 .244-.636c.439-.405 1.402-.26 1.96-.25-.002-.782-.174-2.183.121-2.871.132-.305.346-.416.64-.538"/><path fill="#030a06" fill-rule="evenodd" d="M48.372 16.596c-.934-.092-5.509-.06-7.096-.036-.291.005-.562.024-.8.042-.202.015-.38.028-.527.028 0 0-.632.148-.837.433-.134.186-.18.423-.211.645-.17 1.182-.269 2.387-.368 3.589-.052.632-.104 1.264-.166 1.89l-.602 6.074c-.016.162-.044.384-.075.635-.102.814-.243 1.94-.152 2.39a.85.85 0 0 0 .402.583c.217.128.463.2.71.242h.002c.51 0 1.28.007 2.14.016 1.783.019 6.316.041 7.37-.004.21-.01.433-.027.631-.102a1 1 0 0 0 .59-.562 1.07 1.07 0 0 0-.038-.832.84.84 0 0 0-.558-.49h-9.111q.228-2.011.408-4.029l.107-1.093.01-.108q.11 0 .277.004c.928.014 5.445.046 6.02-.04.212-.031.409-.084.563-.24.2-.202.284-.48.267-.76a.98.98 0 0 0-.3-.657.8.8 0 0 0-.429-.197c-.538-.078-4.553-.057-5.567-.044l-.644.007.462-5.45h4.917c.25 0 .512.009.777.017.642.02 1.306.042 1.903-.05a.93.93 0 0 0 .548-.26c.19-.19.292-.476.278-.741a.97.97 0 0 0-.901-.9" clip-rule="evenodd"/></svg>